#!OML:ASF E:\acrobat2\Project_11_07_03\Capture day 1\Session 1\Acrobat.ASF
:FULLY-SPECIFIED
:DEGREES
149
root 10.678 18.0637 -38.3837 6.13259 -3.41591 -0.894343
lowerback -8.05321 0.213608 -0.249189
upperback -1.15556 0.339198 -0.952334
thorax 3.32345 0.169849 -0.807602
lowerneck 0.967454 -5.99729 -2.74132
upperneck 0.98153 -8.11885 8.17381
head 0.630513 -4.05971 3.02933
rclavicle 1.49554e-015 3.97569e-015
rhumerus -38.9592 0.951255 -87.07
rradius 28.1186
rwrist 4.54028
rhand 1.67251 -47.6296
rfingers 7.12502
rthumb 27.1914 -75.6902
lclavicle 1.49554e-015 3.97569e-015
lhumerus -32.134 -17.6064 93.9304
lradius 20.9216
lwrist 10.585
lhand -11.5196 -9.66119
lfingers 7.12502
lthumb 14.5199 19.8107
rfemur 2.63303 8.44177 21.1578
rtibia 1.3043
rfoot -20.7645 -20.7648
rtoes 6.00352
lfemur -0.628232 -0.507609 -17.032
ltibia 3.74346
lfoot -7.20956 -5.02375
ltoes 30.1114
150
root 10.6784 18.0635 -38.382 6.14049 -3.43911 -0.900902
lowerback -8.05796 0.22107 -0.235715
upperback -1.1681 0.34788 -0.953108
thorax 3.31331 0.174296 -0.81504
lowerneck 1.01821 -5.99851 -2.78404
upperneck 0.956337 -8.12071 8.23711
head 0.618856 -4.0623 3.06058
rclavicle -3.66665e-015 4.37326e-015
rhumerus -38.9968 0.961382 -87.0707
rradius 28.1187
rwrist 4.53736
rhand 1.66552 -47.6426
rfingers 7.12502
rthumb 27.1847 -75.7043
lclavicle -3.66665e-015 4.37326e-015
lhumerus -32.2268 -17.5907 94.0028
lradius 20.9423
lwrist 10.6265
lhand -11.4758 -9.64194
lfingers 7.12502
lthumb 14.5621 19.8269
rfemur 2.63493 8.45089 21.1598
rtibia 1.29086
rfoot -20.7628 -20.7634
rtoes 5.92882
lfemur -0.613029 -0.529326 -17.0341
ltibia 3.7078
lfoot -7.23866 -4.98091
ltoes 30.0814
151
root 10.6787 18.063 -38.3806 6.15221 -3.46855 -0.885955
lowerback -8.06447 0.230675 -0.243882
upperback -1.18192 0.361596 -0.962366
thorax 3.30282 0.181024 -0.818534
lowerneck 1.07351 -6.00336 -2.8264
upperneck 0.920142 -8.12691 8.30901
head 0.603574 -4.06738 3.095
rclavicle 1.37752e-015 -3.97569e-015
rhumerus -39.0273 0.952635 -87.0677
rradius 28.1168
rwrist 4.54507
rhand 1.66786 -47.6762
rfingers 7.12502
rthumb 27.1869 -75.7375
lclavicle 1.37752e-015 -3.97569e-015
lhumerus -32.3139 -17.5704 94.0661
lradius 20.9526
lwrist 10.644
lhand -11.4767 -9.64551
lfingers 7.12502
lthumb 14.5612 19.8234
rfemur 2.62942 8.4692 21.1354
rtibia 1.27846
rfoot -20.7568 -20.7646
rtoes 5.94632
lfemur -0.604532 -0.542361 -17.0606
ltibia 3.67388
lfoot -7.26714 -4.93458
ltoes 29.9922
152
root 10.6785 18.0627 -38.3802 6.16442 -3.47363 -0.85978
lowerback -8.06121 0.234718 -0.267448
upperback -1.19346 0.36938 -0.976674
thorax 3.28911 0.184655 -0.819253
lowerneck 1.1172 -6.01486 -2.85934
upperneck 0.880429 -8.14166 8.38299
head 0.589388 -4.07654 3.12796
rclavicle -1.0079e-014 2.10712e-014
rhumerus -39.0383 0.919539 -87.0607
rradius 28.1063
rwrist 4.56801
rhand 1.67599 -47.7136
rfingers 7.12502
rthumb 27.1947 -75.7736
lclavicle -1.0079e-014 2.10712e-014
lhumerus -32.3831 -17.553 94.117
lradius 20.9463
lwrist 10.6206
lhand -11.5153 -9.67574
lfingers 7.12502
lthumb 14.524 19.7959
rfemur 2.6259 8.49729 21.1066
rtibia 1.26125
rfoot -20.7639 -20.7929
rtoes 6.0397
lfemur -0.617606 -0.531813 -17.0923
ltibia 3.66946
lfoot -7.27547 -4.91759
ltoes 29.7995
153
root 10.6783 18.0624 -38.38 6.17683 -3.46769 -0.835355
lowerback -8.05604 0.241053 -0.284676
upperback -1.19929 0.379881 -0.99583
thorax 3.28035 0.189751 -0.828259
lowerneck 1.13349 -6.03513 -2.87477
upperneck 0.848497 -8.16821 8.45075
head 0.58208 -4.09079 3.15437
rclavicle 1.40702e-015 1.59028e-015
rhumerus -39.0285 0.859693 -87.0504
rradius 28.086
rwrist 4.6111
rhand 1.68849 -47.736
rfingers 7.12502
rthumb 27.2066 -75.7943
lclavicle 1.40702e-015 1.59028e-015
lhumerus -32.4247 -17.5439 94.1527
lradius 20.9154
lwrist 10.5532
lhand -11.5684 -9.7486
lfingers 7.12502
lthumb 14.4728 19.7267
rfemur 2.62251 8.5199 21.0808
rtibia 1.24424
rfoot -20.7729 -20.8222
rtoes 6.12469
lfemur -0.641192 -0.513925 -17.1206
ltibia 3.68407
lfoot -7.28627 -4.91244
ltoes 29.5394
154
root 10.6782 18.0621 -38.38 6.18863 -3.4515 -0.817817
lowerback -8.04814 0.247687 -0.291545
upperback -1.20153 0.389925 -1.01579
thorax 3.27386 0.194754 -0.843977
lowerneck 1.1262 -6.06094 -2.87428
upperneck 0.827259 -8.20234 8.50644
head 0.581451 -4.10806 3.17264
rclavicle -1.59183e-015 3.97569e-016
rhumerus -39.008 0.788785 -87.0388
rradius 28.0623
rwrist 4.66401
rhand 1.70014 -47.7462
rfingers 7.12502
rthumb 27.2178 -75.8027
lclavicle -1.59183e-015 3.97569e-016
lhumerus -32.4434 -17.5397 94.1778
lradius 20.8602
lwrist 10.4551
lhand -11.6328 -9.83631
lfingers 7.12502
lthumb 14.4109 19.6434
rfemur 2.61913 8.5358 21.0633
rtibia 1.22927
rfoot -20.7826 -20.8506
rtoes 6.16177
lfemur -0.670952 -0.499887 -17.1407
ltibia 3.71035
lfoot -7.29537 -4.91814
ltoes 29.3293
155
root 10.6781 18.0616 -38.3801 6.20276 -3.42848 -0.807661
lowerback -8.04206 0.250282 -0.293254
upperback -1.20547 0.393966 -1.03077
thorax 3.26654 0.196808 -0.858092
lowerneck 1.11033 -6.08444 -2.86784
upperneck 0.82084 -8.23395 8.54498
head 0.585772 -4.12359 3.18349
rclavicle -1.08912e-014 1.51076e-014
rhumerus -38.9912 0.731614 -87.028
rradius 28.0405
rwrist 4.71234
rhand 1.70445 -47.7534
rfingers 7.12502
rthumb 27.2219 -75.8092
lclavicle -1.08912e-014 1.51076e-014
lhumerus -32.4568 -17.5352 94.2021
lradius 20.7961
lwrist 10.3601
lhand -11.6751 -9.89657
lfingers 7.12502
lthumb 14.3701 19.586
rfemur 2.61175 8.54855 21.0554
rtibia 1.21812
rfoot -20.791 -20.8775
rtoes 6.15983
lfemur -0.708259 -0.488207 -17.1508
ltibia 3.74495
lfoot -7.29155 -4.93488
ltoes 29.2385
156
root 10.678 18.0611 -38.3804 6.22231 -3.40608 -0.804416
lowerback -8.04078 0.248411 -0.292835
upperback -1.21582 0.391581 -1.03827
thorax 3.25514 0.195642 -0.866352
lowerneck 1.09782 -6.09962 -2.86493
upperneck 0.835294 -8.25557 8.56522
head 0.594789 -4.1338 3.18872
rclavicle 6.84875e-015 -4.37326e-015
rhumerus -38.9874 0.702548 -87.0208
rradius 28.0234
rwrist 4.74551
rhand 1.70113 -47.7729
rfingers 7.12502
rthumb 27.2187 -75.8292
lclavicle 6.84875e-015 -4.37326e-015
lhumerus -32.4827 -17.5238 94.2308
lradius 20.7404
lwrist 10.2864
lhand -11.6554 -9.92516
lfingers 7.12502
lthumb 14.3891 19.5561
rfemur 2.59412 8.55921 21.0554
rtibia 1.21479
rfoot -20.8005 -20.899
rtoes 6.16197
lfemur -0.75063 -0.477826 -17.1518
ltibia 3.78007
lfoot -7.28074 -4.95751
ltoes 29.2441
157
root 10.678 18.0605 -38.3801 6.24268 -3.39941 -0.809332
lowerback -8.05128 0.247785 -0.284676
upperback -1.22728 0.390046 -1.0394
thorax 3.24918 0.194953 -0.872248
lowerneck 1.09343 -6.10559 -2.86799
upperneck 0.858058 -8.26529 8.57336
head 0.603966 -4.13811 3.1913
rclavicle -7.07239e-015 2.78299e-015
rhumerus -38.9965 0.709757 -87.0219
rradius 28.0195
rwrist 4.75187
rhand 1.6901 -47.8116
rfingers 7.12502
rthumb 27.2082 -75.8696
lclavicle -7.07239e-015 2.78299e-015
lhumerus -32.5237 -17.5054 94.263
lradius 20.7052
lwrist 10.2317
lhand -11.561 -9.92082
lfingers 7.12502
lthumb 14.48 19.5539
rfemur 2.57122 8.56384 21.0595
rtibia 1.2196
rfoot -20.8082 -20.9002
rtoes 6.17336
lfemur -0.77703 -0.480343 -17.1466
ltibia 3.79093
lfoot -7.28526 -4.95853
ltoes 29.2247
158
root 10.678 18.0601 -38.3797 6.25894 -3.39058 -0.819475
lowerback -8.06145 0.244016 -0.275045
upperback -1.23605 0.384064 -1.0359
thorax 3.24572 0.192056 -0.874665
lowerneck 1.09613 -6.1057 -2.8739
upperneck 0.871076 -8.2665 8.57856
head 0.608252 -4.13854 3.19399
rclavicle 6.08312e-015 3.57812e-015
rhumerus -39.0118 0.740955 -87.0303
rradius 28.0319
rwrist 4.73746
rhand 1.67435 -47.8591
rfingers 7.12502
rthumb 27.1931 -75.9194
lclavicle 6.08312e-015 3.57812e-015
lhumerus -32.568 -17.4893 94.2955
lradius 20.6924
lwrist 10.2021
lhand -11.3921 -9.88555
lfingers 7.12502
lthumb 14.6428 19.5775
rfemur 2.55352 8.56616 21.0716
rtibia 1.2247
rfoot -20.8185 -20.9011
rtoes 6.18929
lfemur -0.792113 -0.48476 -17.1331
ltibia 3.78589
lfoot -7.28831 -4.95439
ltoes 29.1245
159
root 10.6783 18.06 -38.3785 6.26753 -3.40265 -0.838897
lowerback -8.07613 0.247403 -0.251548
upperback -1.23799 0.386453 -1.03072
thorax 3.25205 0.193484 -0.882236
lowerneck 1.10182 -6.09959 -2.8873
upperneck 0.875231 -8.259 8.59277
head 0.609437 -4.13488 3.2015
rclavicle -4.16982e-015 2.54444e-014
rhumerus -39.0269 0.779036 -87.0409
rradius 28.0534
rwrist 4.71558
rhand 1.65716 -47.9116
rfingers 7.12502
rthumb 27.1767 -75.9745
lclavicle -4.16982e-015 2.54444e-014
lhumerus -32.6055 -17.4757 94.3244
lradius 20.6968
lwrist 10.2081
lhand -11.1787 -9.81446
lfingers 7.12502
lthumb 14.8484 19.6335
rfemur 2.54358 8.56593 21.0897
rtibia 1.23132
rfoot -20.8145 -20.8866
rtoes 6.1811
lfemur -0.778142 -0.50497 -17.1138
ltibia 3.752
lfoot -7.31531 -4.91847
ltoes 28.9381
160
root 10.6785 18.0601 -38.3775 6.26844 -3.40988 -0.864661
lowerback -8.0835 0.248675 -0.223398
upperback -1.23453 0.385521 -1.0228
thorax 3.25985 0.193316 -0.889948
lowerneck 1.10279 -6.08475 -2.91328
upperneck 0.881915 -8.24034 8.6214
head 0.612835 -4.12553 3.21616
rclavicle 1.27253e-014 9.54166e-015
rhumerus -39.0364 0.822334 -87.0533
rradius 28.0775
rwrist 4.69074
rhand 1.63579 -47.9588
rfingers 7.12502
rthumb 27.1562 -76.0249
lclavicle 1.27253e-014 9.54166e-015
lhumerus -32.6321 -17.4648 94.3497
lradius 20.7106
lwrist 10.2512
lhand -10.9751 -9.71451
lfingers 7.12502
lthumb 15.0445 19.7189
rfemur 2.54539 8.56817 21.119
rtibia 1.23337
rfoot -20.8088 -20.8841
rtoes 6.15372
lfemur -0.75486 -0.52504 -17.0856
ltibia 3.71631
lfoot -7.34023 -4.88164
ltoes 28.6859
161
root 10.679 18.0606 -38.376 6.25882 -3.42648 -0.894562
lowerback -8.08666 0.253405 -0.188809
upperback -1.22535 0.388607 -1.01366
thorax 3.27132 0.195232 -0.899602
lowerneck 1.09616 -6.06272 -2.94667
upperneck 0.902451 -8.21307 8.65461
head 0.621977 -4.11145 3.23336
rclavicle -1.48592e-014 2.06736e-014
rhumerus -39.0409 0.865474 -87.0637
rradius 28.0986
rwrist 4.67083
rhand 1.61414 -47.9884
rfingers 7.12502
rthumb 27.1355 -76.0578
lclavicle -1.48592e-014 2.06736e-014
lhumerus -32.6497 -17.4591 94.3748
lradius 20.7243
lwrist 10.3196
lhand -10.8265 -9.61806
lfingers 7.12502
lthumb 15.1876 19.8046
rfemur 2.56154 8.56651 21.1513
rtibia 1.2309
rfoot -20.7908 -20.8741
rtoes 6.09459
lfemur -0.713791 -0.550374 -17.0566
ltibia 3.67648
lfoot -7.37262 -4.83408
ltoes 28.4713
162
root 10.6798 18.0612 -38.3744 6.24267 -3.45085 -0.924277
lowerback -8.08319 0.261211 -0.152716
upperback -1.21585 0.395587 -1.00421
thorax 3.27949 0.199101 -0.909388
lowerneck 1.08391 -6.03672 -2.98082
upperneck 0.942406 -8.18167 8.68261
head 0.637788 -4.0948 3.2485
rclavicle -2.37299e-015 -9.14409e-015
rhumerus -39.0454 0.902609 -87.0684
rradius 28.1129
rwrist 4.65949
rhand 1.60024 -48.0064
rfingers 7.12502
rthumb 27.1222 -76.0778
lclavicle -2.37299e-015 -9.14409e-015
lhumerus -32.6673 -17.459 94.4032
lradius 20.7344
lwrist 10.3975
lhand -10.76 -9.54008
lfingers 7.12502
lthumb 15.2517 19.8777
rfemur 2.58526 8.56162 21.1805
rtibia 1.22631
rfoot -20.7656 -20.8573
rtoes 6.02843
lfemur -0.663982 -0.577246 -17.0307
ltibia 3.63867
lfoot -7.40456 -4.78721
ltoes 28.401
163
root 10.6804 18.0617 -38.3733 6.22718 -3.47077 -0.944476
lowerback -8.07361 0.2674 -0.128137
upperback -1.21007 0.401423 -0.997169
thorax 3.28034 0.202266 -0.915321
lowerneck 1.06665 -6.00929 -3.01289
upperneck 1.00271 -8.14956 8.70347
head 0.660459 -4.07728 3.26035
rclavicle 1.03818e-014 -1.19271e-014
rhumerus -39.0515 0.931379 -87.0698
rradius 28.1205
rwrist 4.65425
rhand 1.59315 -48.0209
rfingers 7.12502
rthumb 27.1154 -76.0934
lclavicle 1.03818e-014 -1.19271e-014
lhumerus -32.6918 -17.474 94.4363
lradius 20.7411
lwrist 10.484
lhand -10.7661 -9.49575
lfingers 7.12502
lthumb 15.2458 19.9224
rfemur 2.60781 8.55792 21.1996
rtibia 1.21968
rfoot -20.7428 -20.8434
rtoes 6.0136
lfemur -0.625524 -0.585818 -17.013
ltibia 3.61582
lfoot -7.417 -4.76131
ltoes 28.3899
